<?xml version="1.0" encoding="utf-8"?>
<!-- Generator: Adobe Illustrator 23.0.5, SVG Export Plug-In . SVG Version: 6.00 Build 0)  -->
<svg version="1.1" id="Layer_1" xmlns="http://www.w3.org/2000/svg" xmlns:xlink="http://www.w3.org/1999/xlink" x="0px" y="0px"
	 viewBox="0 0 512 512" style="enable-background:new 0 0 512 512;" xml:space="preserve">
<style type="text/css">
	.st0{fill:#FDFEFE;}
	.st1{fill:#F9F9FA;}
	.st2{fill:#5678BB;}
	.st3{clip-path:url(#SVGID_2_);fill:#FFFFFF;}
</style>
<g>
	<rect x="0" y="0" class="st1" width="512" height="512"/>
	<g>
		<path class="st2" d="M117.57,219.44c0.16,0.23,0.26,0.32,0.31,0.44c1.27,2.66,3.07,4.94,5.11,7.04c2.12,2.19,4.3,4.32,6.43,6.5
			c1.83,1.88,3.37,3.98,4.46,6.38c2.04,4.5,2.21,9.1,0.49,13.71c-2.09,5.59-5.18,10.54-9.74,14.48c-2.11,1.82-4.42,3.35-6.85,4.7
			c-0.23,0.13-0.51,0.23-0.77,0.27c-2.56,0.35-5.09,0.15-7.77-0.38c0.23-0.11,0.31-0.17,0.4-0.18c3.39-0.35,6.52-1.52,9.5-3.1
			c3.88-2.07,7.41-4.62,10.39-7.87c0.95-1.03,1.76-2.16,2.5-3.36c1.94-3.16,2.16-6.57,1.63-10.09c-0.51-3.4-2.18-6.3-4.27-8.98
			c-1.71-2.2-3.75-4.09-5.72-6.03c-2.27-2.24-4.5-4.52-6.23-7.22c-0.08-0.12-0.2-0.22-0.4-0.43c-0.02,0.32-0.06,0.5-0.05,0.68
			c0.29,4.64,1.73,8.86,4.57,12.58c1.65,2.16,3.26,4.35,4.81,6.58c1.97,2.81,2.22,5.8,0.59,8.86c-0.62,1.16-1.29,2.3-2.03,3.39
			c-1.37,1.98-3.28,3.12-5.69,3.38c-0.11,0.01-0.22,0.02-0.33,0.04c-1.19,0.2-2.3,0.04-3.27-0.79c-0.2,0.08-0.41,0.16-0.6,0.25
			c-1.79,0.79-3.65,1-5.56,0.57c-1.09-0.25-2.16-0.64-3.23-0.99c-1.1-0.36-2.19-0.71-3.36-0.77c-1.74-0.08-3.31,0.37-4.73,1.39
			c-0.39,0.28-0.6,0.59-0.64,1.08c-0.13,1.48,0.2,2.86,0.91,4.12c0.66,1.2,1.43,2.34,2.21,3.47c1.27,1.83,2.6,3.63,3.48,5.68
			c2.48,5.76,2.68,11.6,0.39,17.47c-0.26,0.67-0.63,1.3-1.07,1.89c0.19-0.85,0.41-1.7,0.57-2.56c0.64-3.48,0.7-6.95-0.61-10.31
			c-1.11-2.87-2.4-5.66-4.32-8.11c-0.76-0.97-1.48-1.98-2.16-3.01c-0.4-0.62-0.72-1.3-1.01-1.98c-0.69-1.66-0.72-3.36,0.09-4.95
			c0.8-1.59,1.68-3.16,2.7-4.61c1.73-2.47,4.21-3.34,7.15-2.81c1.24,0.22,2.45,0.61,3.67,0.93c0.69,0.18,1.38,0.36,2.08,0.53
			c0.25,0.06,0.52,0.06,0.91,0.11c-0.14-0.41-0.24-0.69-0.33-0.97c-0.49-1.47-0.44-2.92,0.21-4.33c0.69-1.5,1.49-2.94,2.6-4.19
			c0.9-1.02,2-1.62,3.39-1.6c1.64,0.02,2.89,1,3.3,2.58c0.3,1.16,0.2,2.31-0.29,3.38c-0.52,1.12-1.15,2.18-1.74,3.26
			c-0.25,0.45-0.54,0.88-0.9,1.45c0.75,0.13,1.38,0.3,2.01,0.34c1.85,0.11,3.45-0.55,4.8-1.79c0.26-0.24,0.37-0.73,0.42-1.12
			c0.22-1.9-0.25-3.67-1.27-5.26c-1.14-1.78-2.38-3.49-3.57-5.24c-1.08-1.59-2.22-3.14-3.2-4.78c-1.2-2.02-1.87-4.27-2.3-6.58
			c-0.55-3.04-0.49-6.06,0.12-9.09c0.19-0.97,0.74-1.77,1.12-2.65C117.06,220.37,117.31,219.96,117.57,219.44 M119.79,253.59
			c-0.02-0.25-0.03-0.49-0.06-0.74c-0.28-2.38-2.21-3.65-4.5-2.98c-0.24,0.07-0.46,0.18-0.69,0.26c-0.52,0.18-0.69,0.54-0.66,1.08
			c0.14,2.38,1.38,4.05,3.39,5.2c0.18,0.1,0.5,0.1,0.68,0C119.09,255.83,119.94,255.03,119.79,253.59"/>
		<path class="st2" d="M85.75,217.82c0.21,0.46,0.39,0.91,0.62,1.34c1.48,2.83,1.5,5.87,1.25,8.93c-0.42,5.2-2.57,9.65-5.96,13.57
			c-0.82,0.95-1.57,1.98-2.3,3.01c-0.51,0.72-0.8,1.56-0.97,2.43c-0.11,0.54,0.02,0.97,0.4,1.35c0.92,0.95,2.03,1.38,3.34,1.28
			c0.27-0.02,0.53-0.07,0.82-0.11c0.02,0.11,0.07,0.2,0.05,0.26c-0.32,0.9-0.66,1.81-0.98,2.71c-0.13,0.37-0.38,0.56-0.76,0.68
			c-1.59,0.49-3.55-0.26-4.38-1.68c-0.19-0.33-0.24-0.64-0.08-1.01c0.34-0.78,0.64-1.58,0.98-2.36c0.16-0.36,0.17-0.67,0-1.02
			c-0.17-0.34-0.29-0.71-0.43-1.07c-0.8-1.97-0.54-3.83,0.68-5.54c0.75-1.05,1.53-2.08,2.37-3.06c2.1-2.42,3.7-5.11,4.67-8.17
			c0.49-1.55,0.81-3.14,0.99-4.75c0.03-0.24,0-0.49,0-0.82c-0.15,0.09-0.28,0.12-0.35,0.21c-2.33,3.31-5.38,5.93-8.35,8.62
			c-1.86,1.68-3.65,3.41-5.17,5.42c-2.08,2.75-3.51,5.77-3.84,9.23c-0.07,0.7-0.03,1.43,0.09,2.12c0.54,3.15,1.77,6,3.9,8.41
			c4.78,5.39,12.44,6.39,18.47,2.44c2-1.31,3.59-3.03,5.16-4.81c1.43-1.62,1.62-3.51,1.45-5.47c-0.29-3.24-1.85-5.77-4.61-7.5
			c-0.56-0.35-0.78-0.73-0.8-1.37c-0.03-1.05-0.27-2.07-0.72-3.03c-0.08-0.16-0.12-0.34-0.22-0.61c1.36,0.21,2.52,0.68,3.55,1.42
			c3.43,2.45,4.96,5.83,4.23,9.96c-1.06,6.06-4.01,11.06-9.1,14.65c-2.33,1.65-4.96,2.6-7.83,2.76c-4.38,0.25-8.01-1.39-10.96-4.55
			c-2.63-2.82-3.85-6.28-4.3-10.05c-0.23-1.89-0.16-3.78,0.07-5.67c0.11-0.9,0.06-1.81,0.17-2.71c0.53-4.34,2.48-8.01,5.53-11.07
			c2.21-2.22,4.55-4.3,6.84-6.44c2.21-2.07,4.26-4.28,5.79-6.93c0.16-0.29,0.33-0.57,0.5-0.85
			C85.58,217.91,85.64,217.89,85.75,217.82"/>
		<path class="st2" d="M111.38,281.08c0.76-0.94,1.7-1.49,2.7-1.93c1.95-0.86,4.02-1.3,6.13-1.51c3.57-0.35,7.13-0.17,10.69,0.24
			c7.28,0.83,14.37,2.59,21.39,4.62c2,0.58,4.01,1.14,6.02,1.71c0.33,0.09,0.67,0.14,1.17,0.24c-0.09-0.45-0.14-0.76-0.22-1.07
			c-1.27-4.83-2.55-9.66-3.82-14.5c-2.86-10.86-5.72-21.72-8.58-32.57c-0.29-1.12-0.29-1.12-1.54-1.32
			c0.76-0.73,1.49-1.37,2.35-2.07c0.15,0.41,0.28,0.72,0.37,1.04c0.84,2.87,1.68,5.74,2.5,8.62c2.65,9.29,5.3,18.59,7.92,27.89
			c1.84,6.53,3.65,13.06,5.47,19.59c0.11,0.41,0.19,0.83,0.32,1.41c-0.66-0.21-1.18-0.37-1.69-0.53
			c-5.02-1.62-10.01-3.31-15.06-4.83c-6.39-1.93-12.88-3.48-19.5-4.47c-3.21-0.48-6.43-0.86-9.67-0.9c-2-0.02-4,0.17-6,0.27
			C112.02,281.01,111.7,281.05,111.38,281.08"/>
		<path class="st2" d="M44.62,283.63c0.5-0.11,0.87-0.17,1.22-0.27c3.97-1.1,7.92-2.25,11.91-3.31c6.12-1.63,12.31-2.83,18.64-3.28
			c3.52-0.25,7.03-0.24,10.5,0.54c1.89,0.43,3.68,1.1,5.26,2.27c0.21,0.16,0.4,0.34,0.56,0.65c-0.17,0-0.35,0.02-0.52,0
			c-6.4-0.83-12.72-0.03-19.01,1.08c-8.81,1.55-17.38,4.05-25.86,6.85c-2.19,0.72-4.37,1.48-6.55,2.23
			c-0.25,0.09-0.52,0.15-0.92,0.27c0.09-0.42,0.14-0.73,0.23-1.04c1.34-4.84,2.66-9.69,4.03-14.53
			c3.66-12.92,7.34-25.83,11.01-38.75c0.32-1.14,0.66-2.27,1-3.4c0.08-0.25,0.18-0.5,0.32-0.88c0.81,0.72,1.53,1.35,2.26,2
			c-0.12,0.11-0.15,0.17-0.2,0.17c-0.93,0.1-0.94,0.1-1.18,1c-2.51,9.5-5.01,19.01-7.51,28.52c-1.66,6.32-3.33,12.64-4.99,18.96
			C44.74,282.97,44.7,283.23,44.62,283.63"/>
		<path class="st2" d="M155.52,280.13c-0.56-0.14-0.96-0.22-1.34-0.33c-5.35-1.57-10.76-2.92-16.25-3.93
			c-5.4-0.99-10.84-1.41-16.32-1.22c-1.34,0.05-2.68,0.26-4.01,0.4c-0.32,0.03-0.63,0.07-0.95,0.1c-0.02-0.06-0.04-0.11-0.05-0.17
			c0.38-0.18,0.76-0.38,1.15-0.53c3.1-1.24,6.34-1.74,9.65-1.94c5.81-0.36,11.58,0.1,17.33,0.93c1.79,0.26,3.59,0.51,5.38,0.76
			c1.32,0.18,1.37,0.13,1.05-1.13c-0.86-3.46-1.73-6.92-2.59-10.39c-2.63-10.58-5.26-21.15-7.89-31.73
			c-0.4-1.63-0.81-3.25-1.22-4.87c-0.27-1.06-0.28-1.06-1.33-0.9c-0.75,0.12-1.51,0.24-2.33,0.38c0.39-0.55,3.57-2.62,4.67-3.1
			c0.03,0,0.06,0,0.08,0.01c0.02,0.01,0.05,0.03,0.06,0.06c0.07,0.21,0.16,0.41,0.21,0.62
			C145.71,242.06,150.59,260.99,155.52,280.13"/>
		<path class="st2" d="M87.35,274.33c-1.01-0.12-2.01-0.23-3.02-0.35c-2.6-0.32-5.21-0.19-7.82-0.11
			c-5.37,0.18-10.65,1.09-15.87,2.32c-3.63,0.86-7.23,1.87-10.84,2.82c-0.34,0.09-0.68,0.17-0.95,0.24
			c-0.09-0.08-0.12-0.1-0.13-0.12c-0.01-0.02-0.02-0.05-0.02-0.08c0-0.08-0.01-0.17,0.01-0.24c4.88-18.96,9.76-37.91,14.65-56.87
			c0.03-0.1,0.08-0.2,0.11-0.29c0.6,0.15,4.07,2.28,4.88,3.01c-0.28,0-0.48,0.03-0.67,0c-0.57-0.09-1.14-0.2-1.7-0.3
			c-1.04-0.17-1.07-0.15-1.34,0.9c-0.27,1.04-0.53,2.07-0.79,3.11c-2.58,10.36-5.16,20.73-7.74,31.09
			c-1.07,4.32-2.15,8.63-3.21,12.95c-0.08,0.3-0.09,0.62-0.15,1c0.42,0,0.75,0.04,1.06-0.01c3.16-0.42,6.31-0.91,9.47-1.27
			c5.55-0.63,11.12-0.85,16.68-0.12c2.19,0.29,4.32,0.79,6.37,1.62c0.37,0.15,0.73,0.33,1.1,0.49
			C87.4,274.19,87.38,274.26,87.35,274.33"/>
		<path class="st2" d="M89.28,281.68c-0.35,0.07-0.59,0.14-0.83,0.16c-4.36,0.44-8.61,1.46-12.82,2.62c-4.02,1.11-8.01,2.35-12,3.57
			c-0.87,0.27-1.7,0.36-2.58,0.09c-0.83-0.25-1.68-0.44-2.55-0.79c0.21-0.1,0.41-0.21,0.63-0.29c6.66-2.39,13.46-4.23,20.51-5.07
			C82.4,281.64,86.91,281.47,89.28,281.68"/>
		<path class="st2" d="M114.72,282.52c10.71-0.59,20.87,1.98,31.02,5.6c-0.3,0.14-0.44,0.24-0.6,0.28
			c-0.69,0.18-1.39,0.33-2.07,0.53c-0.88,0.26-1.71,0.19-2.58-0.08c-3.43-1.07-6.86-2.14-10.32-3.12c-4.33-1.23-8.7-2.3-13.17-2.93
			C116.24,282.69,115.48,282.61,114.72,282.52"/>
		<path class="st2" d="M76.73,236.74c-0.16,0.31-0.33,0.62-0.49,0.93c-0.76,1.43-1.57,2.84-2.26,4.29
			c-0.35,0.73-0.52,1.55-0.73,2.34c-0.11,0.43,0.01,0.82,0.41,1.08c0.37,0.24,0.77,0.2,1.22-0.13c0.23-0.17,0.46-0.36,0.75-0.48
			c-0.15,1.04-0.62,1.86-1.57,2.32c-0.79,0.38-1.48,0.02-1.7-0.83c-0.23-0.87-0.24-1.75,0.05-2.6c0.3-0.91,0.63-1.82,1.06-2.67
			c0.69-1.34,1.44-2.66,2.47-3.78c0.13-0.14,0.26-0.28,0.4-0.41c0.08-0.07,0.18-0.12,0.27-0.17
			C76.64,236.67,76.68,236.71,76.73,236.74"/>
		<path class="st2" d="M88.47,252.54c1.83-0.46,3.37-1.37,4.84-2.63c-0.25-0.24-0.44-0.42-0.62-0.61c-0.43-0.45-0.44-0.85,0.02-1.27
			c0.22-0.2,0.48-0.37,0.76-0.48c0.39-0.16,0.62,0.02,0.66,0.46c0.01,0.14,0.02,0.28-0.01,0.41c-0.13,0.52-0.11,1.01,0.29,1.42
			c-0.09,0.1-0.16,0.21-0.2,0.2c-0.64-0.18-0.99,0.25-1.4,0.6c-1.15,0.96-2.48,1.63-3.83,2.24c-1.02,0.46-2.07,0.84-3.11,1.25
			c-0.03-0.05-0.06-0.1-0.09-0.15c0.15-0.12,0.29-0.26,0.45-0.37c0.65-0.46,1.33-0.88,1.96-1.36c0.53-0.41,0.97-0.92,0.96-1.65
			c-0.01-0.58-0.41-0.84-0.95-0.62c-0.4,0.16-0.5,0.44-0.34,0.86c0.09,0.23,0.18,0.45,0.25,0.68c0.01,0.03-0.04,0.09-0.07,0.14
			c-0.53-0.36-0.74-0.8-0.59-1.36c0.14-0.57,0.48-0.99,1.07-1.15c0.47-0.13,0.9,0.2,0.99,0.74c0.12,0.71-0.03,1.37-0.48,1.94
			C88.84,252.09,88.66,252.31,88.47,252.54 M93.72,249.21c0.03-0.34,0.11-0.57,0.06-0.78c-0.03-0.14-0.25-0.3-0.4-0.31
			c-0.15-0.01-0.39,0.11-0.46,0.24c-0.06,0.12,0.04,0.36,0.14,0.48C93.21,248.99,93.42,249.05,93.72,249.21"/>
		<path class="st2" d="M114.16,239.19c-0.18-0.17-0.29-0.27-0.4-0.38c-0.33-0.32-0.37-0.55-0.14-0.93c0.21-0.35,0.5-0.61,0.92-0.66
			c0.33-0.04,0.48,0.09,0.48,0.42c0,0.12-0.02,0.23-0.05,0.35c-0.1,0.4-0.11,0.77,0.26,1.08c-0.08,0.17-0.16,0.33-0.25,0.51
			c-0.2-0.08-0.37-0.16-0.57-0.24c-1.07,1.07-2.4,1.65-3.9,1.9c0.09-0.07,0.18-0.15,0.28-0.2c0.77-0.39,1.54-0.76,2.3-1.16
			C113.46,239.68,113.79,239.43,114.16,239.19 M113.91,237.89c0.22,0.34,0.34,0.52,0.71,0.45c-0.06-0.19-0.07-0.4-0.18-0.51
			C114.38,237.77,114.16,237.86,113.91,237.89"/>
		<path class="st2" d="M111.3,269.4c-0.06-0.3-0.15-0.61-0.16-0.91c-0.04-0.89-0.23-1.67-1.14-2.12c-0.23-0.11-0.39-0.45-0.48-0.72
			c-0.06-0.2-0.03-0.53,0.1-0.66c0.22-0.23,0.58-0.22,0.83-0.01c0.21,0.17,0.4,0.4,0.5,0.64c0.21,0.47,0.36,0.97,0.52,1.47
			c0.09,0.28,0.12,0.57,0.34,0.89c0.13-0.22,0.27-0.44,0.4-0.66c0.33-0.54,0.63-1.1,0.99-1.61c0.36-0.5,0.88-0.59,1.27-0.29
			c0.37,0.29,0.37,0.7-0.01,1.27c-0.03,0-0.07,0.01-0.08,0c-0.69-0.69-1.06-0.66-1.55,0.19c-0.3,0.52-0.5,1.1-0.77,1.64
			c-0.16,0.33-0.38,0.63-0.57,0.94C111.44,269.44,111.37,269.42,111.3,269.4"/>
		<path class="st2" d="M91.16,234.56c-0.06-0.33-0.16-0.66-0.18-0.99c-0.04-0.87-0.25-1.61-1.13-2.04c-0.23-0.11-0.4-0.45-0.48-0.72
			c-0.06-0.2-0.01-0.53,0.12-0.66c0.22-0.23,0.57-0.2,0.83,0.01c0.19,0.15,0.37,0.35,0.46,0.57c0.22,0.53,0.39,1.08,0.56,1.62
			c0.08,0.25,0.12,0.51,0.35,0.8c0.17-0.3,0.33-0.61,0.51-0.91c0.28-0.47,0.54-0.96,0.86-1.4c0.37-0.5,0.9-0.58,1.28-0.26
			c0.38,0.32,0.37,0.7-0.03,1.28c-0.02,0-0.06,0.01-0.07-0.01c-0.71-0.72-1.08-0.68-1.58,0.24c-0.28,0.53-0.49,1.1-0.76,1.64
			c-0.15,0.3-0.36,0.58-0.55,0.86L91.16,234.56z"/>
		<path class="st2" d="M122.46,225.02c0.18-0.55,0.58-0.6,0.92-0.71c2.04-0.65,4.08-1.29,6.12-1.93c0.55-0.17,1.1-0.33,1.66-0.48
			c0.26-0.07,0.52-0.12,0.8-0.18c0.21,0.44-0.01,0.6-0.33,0.7c-0.47,0.14-0.95,0.27-1.42,0.41c-2.35,0.67-4.69,1.34-7.04,2.02
			C122.97,224.9,122.76,224.94,122.46,225.02"/>
		<path class="st2" d="M127.62,260.4c-0.2,0.73-0.49,1.2-1.05,1.45c-0.51,0.23-0.98,0.05-1.07-0.5c-0.08-0.5-0.11-1.05,0-1.54
			c0.41-1.69,1.3-3.12,2.45-4.41c0.03-0.03,0.09-0.02,0.26-0.05c-0.29,0.53-0.55,1-0.79,1.48c-0.4,0.81-0.8,1.62-1.17,2.44
			c-0.12,0.27-0.18,0.58-0.2,0.88c-0.04,0.62,0.42,0.89,0.97,0.61C127.19,260.68,127.33,260.58,127.62,260.4"/>
		<path class="st2" d="M101.07,253.33c-0.08-0.86-0.14-1.72-0.24-2.58c-0.37-3.02-0.73-6.04-1.16-9.06
			c-0.62-4.37-0.83-8.81-2.4-13.01c-0.22-0.59,0.08-1.38,0.15-2.07c0.1-0.02,0.21-0.05,0.31-0.07c0.22,0.42,0.53,0.82,0.65,1.27
			c0.52,2.01,1.16,4.02,1.44,6.07c0.7,5.09,1.22,10.21,1.83,15.31c0.32,2.7,1.75,3.77,4.31,2.93c1.8-0.59,3.5-1.52,5.16-2.46
			c0.94-0.53,0.83-1.3-0.19-1.72c-0.61-0.25-1.32-0.35-1.99-0.39c-0.64-0.04-1.3,0.11-1.95,0.12c-1.38,0.02-2.19-0.73-2.29-2.09
			c-0.11-1.46,0.45-2.69,1.42-3.73c0.69-0.74,1.65-0.79,2.75-0.19c1.73,0.96,2.66,2.55,3.18,4.37c1.67,5.83-4.18,9.11-7.9,8.77
			c-0.76-0.07-1.46-0.77-2.2-1.16c-0.28-0.15-0.6-0.23-0.91-0.35C101.04,253.31,101.07,253.33,101.07,253.33 M109.34,245.11
			c-0.73-0.99-1.43-1.5-2.41-1.35c-0.29,0.04-0.54,0.4-0.81,0.61c0.25,0.24,0.48,0.63,0.76,0.68
			C107.61,245.15,108.36,245.09,109.34,245.11"/>
		<path class="st2" d="M104.44,237.67c0.76,0.4,1.45,0.75,2.21,1.15c0.26-0.56,0.48-1.02,0.75-1.6c0.75,0.42,1.44,0.81,2.22,1.25
			c-0.27,0.69-0.52,1.31-0.79,2c-0.79-0.42-1.5-0.79-2.26-1.19c-0.29,0.55-0.54,1.03-0.79,1.5
			C103.25,239.42,103.33,240.04,104.44,237.67"/>
		<path class="st2" d="M102.84,236.66c0.19-0.24,0.29-0.49,0.48-0.58c2-0.95,4-1.87,6.1-2.68c-0.12,0.13-0.21,0.3-0.36,0.37
			c-1.98,0.98-3.98,1.94-5.97,2.91C103.06,236.7,103.01,236.68,102.84,236.66"/>
		<path class="st2" d="M115.76,245.51c-0.92-0.64-1.83-1.29-2.83-2c0.45-0.9,0.86-1.73,1.28-2.56
			C117.67,242.83,117.84,242.75,115.76,245.51"/>
		<rect x="178.86" y="233.44" class="st2" width="2.19" height="20.7"/>
		<path class="st2" d="M202.02,252.82c1.67-0.88,2.96-2.09,3.89-3.65c0.93-1.56,1.39-3.35,1.39-5.38c0-2.03-0.46-3.82-1.39-5.38
			c-0.93-1.56-2.22-2.77-3.89-3.65c-1.67-0.88-3.6-1.32-5.81-1.32h-8.43v20.7h8.43C198.42,254.14,200.36,253.7,202.02,252.82
			 M189.98,252.25v-16.91h6.12c1.83,0,3.42,0.36,4.77,1.08c1.35,0.72,2.4,1.71,3.15,2.97c0.75,1.26,1.12,2.73,1.12,4.41
			c0,1.66-0.37,3.12-1.12,4.39c-0.75,1.27-1.8,2.27-3.15,2.99c-1.35,0.72-2.94,1.08-4.77,1.08H189.98z"/>
		<path class="st2" d="M218.06,233.44l-9.46,20.7h2.28l2.47-5.53h11.55l2.47,5.53h2.31l-9.46-20.7H218.06z M214.15,246.84
			l4.98-11.13l4.98,11.13H214.15z"/>
		<path class="st2" d="M240.86,247.58c0.58,0,1.13-0.04,1.66-0.11l4.73,6.67h2.4l-5.06-7.11c0.28-0.09,0.55-0.19,0.81-0.3
			c1.26-0.56,2.23-1.37,2.91-2.42c0.68-1.05,1.02-2.31,1.02-3.77c0-1.5-0.34-2.77-1.02-3.83s-1.65-1.86-2.91-2.42
			c-1.26-0.56-2.77-0.84-4.52-0.84h-7.75v20.7h2.19v-6.56H240.86z M245.52,236.7c1.07,0.91,1.61,2.19,1.61,3.84
			c0,1.64-0.54,2.91-1.61,3.81c-1.07,0.91-2.65,1.36-4.72,1.36h-5.5v-10.38h5.5C242.87,235.34,244.44,235.79,245.52,236.7"/>
		<path class="st2" d="M260.64,233.44l-9.46,20.7h2.28l2.47-5.53h11.55l2.47,5.53h2.31l-9.46-20.7H260.64z M256.72,246.84
			l4.98-11.13l4.98,11.13H256.72z"/>
		<path class="st2" d="M286.97,249.7h9.59l1.84,4.44h5.03l-9.25-20.7h-4.73l-9.23,20.7h4.91L286.97,249.7z M291.77,238.15l3.28,7.92
			h-6.58L291.77,238.15z"/>
		<polygon class="st2" points="320.75,250.24 310.37,250.24 310.37,233.44 305.58,233.44 305.58,254.14 320.75,254.14 		"/>
		<rect x="321.93" y="241.81" class="st2" width="8.37" height="3.7"/>
		<polygon class="st2" points="348.93,246.6 348.93,242.76 339.35,242.76 339.35,237.29 350.2,237.29 350.2,233.44 334.56,233.44 
			334.56,254.14 339.35,254.14 339.35,246.6 		"/>
		<path class="st2" d="M369.54,252.04c1.66-1.64,2.48-3.97,2.48-7.01v-11.59h-4.73v11.41c0,1.97-0.4,3.39-1.21,4.26
			c-0.81,0.87-1.94,1.3-3.4,1.3s-2.59-0.43-3.4-1.3c-0.81-0.87-1.21-2.29-1.21-4.26v-11.41h-4.79v11.59c0,3.04,0.83,5.37,2.48,7.01
			c1.66,1.64,3.95,2.45,6.89,2.45C365.59,254.49,367.88,253.68,369.54,252.04"/>
		<path class="st2" d="M381.54,248.37h4.17c0.08,0,0.15,0,0.22,0l3.98,5.77h5.17l-4.62-6.64c0.01-0.01,0.03-0.01,0.04-0.02
			c1.34-0.59,2.38-1.44,3.1-2.56c0.73-1.11,1.09-2.44,1.09-3.98c0-1.56-0.36-2.9-1.09-4.02c-0.73-1.12-1.76-1.99-3.1-2.59
			c-1.34-0.6-2.94-0.9-4.79-0.9h-8.96v20.7h4.79V248.37z M388.76,238.29c0.73,0.63,1.09,1.52,1.09,2.66c0,1.12-0.37,2.01-1.09,2.65
			c-0.73,0.64-1.83,0.96-3.31,0.96h-3.9v-7.21h3.9C386.92,237.35,388.03,237.66,388.76,238.29"/>
		<path class="st2" d="M400.39,251.45c1.01,0.97,2.22,1.72,3.61,2.25c0.9,0.34,1.84,0.56,2.83,0.69c0.65,0.69,1.26,1.29,1.84,1.8
			c0.76,0.67,1.49,1.2,2.19,1.6c0.7,0.39,1.41,0.68,2.13,0.86c0.72,0.18,1.48,0.27,2.29,0.27c2.33,0,4.19-0.85,5.59-2.54l-2.13-2.54
			c-0.99,1.02-2.11,1.54-3.37,1.54c-0.47,0-0.92-0.09-1.35-0.27c-0.42-0.18-0.86-0.48-1.32-0.92c-0.09-0.09-0.18-0.18-0.27-0.28
			c0.2-0.06,0.39-0.12,0.59-0.19c1.37-0.53,2.56-1.28,3.58-2.23c1.01-0.96,1.81-2.09,2.38-3.4c0.57-1.31,0.86-2.74,0.86-4.27
			c0-1.56-0.29-2.99-0.86-4.29c-0.57-1.3-1.37-2.43-2.38-3.39c-1.02-0.96-2.21-1.7-3.58-2.23c-1.37-0.53-2.87-0.8-4.51-0.8
			c-1.62,0-3.11,0.27-4.49,0.8c-1.38,0.53-2.58,1.28-3.61,2.25c-1.03,0.97-1.82,2.1-2.38,3.4c-0.56,1.3-0.84,2.72-0.84,4.26
			c0,1.54,0.28,2.96,0.84,4.26C398.59,249.35,399.38,250.48,400.39,251.45 M402.52,241.1c0.33-0.81,0.78-1.51,1.36-2.1
			c0.58-0.59,1.27-1.04,2.05-1.36c0.79-0.32,1.65-0.47,2.57-0.47c0.93,0,1.78,0.16,2.56,0.47c0.78,0.32,1.46,0.77,2.06,1.36
			c0.59,0.59,1.05,1.29,1.37,2.1c0.33,0.81,0.49,1.71,0.49,2.69c0,0.97-0.16,1.86-0.49,2.68c-0.33,0.82-0.78,1.52-1.37,2.11
			c-0.59,0.59-1.28,1.05-2.06,1.36c-0.78,0.32-1.63,0.47-2.56,0.47c-0.93,0-1.78-0.16-2.57-0.47c-0.79-0.31-1.47-0.77-2.05-1.36
			c-0.58-0.59-1.03-1.3-1.36-2.11c-0.33-0.82-0.49-1.71-0.49-2.68C402.03,242.81,402.2,241.91,402.52,241.1"/>
		<path class="st2" d="M443.63,254.14l-9.25-20.7h-4.73l-9.22,20.7h4.91l1.84-4.44h9.59l1.84,4.44H443.63z M428.69,246.07l3.29-7.92
			l3.28,7.92H428.69z"/>
		<polygon class="st2" points="450.52,241.58 460.84,254.14 464.77,254.14 464.77,233.44 460.04,233.44 460.04,246 449.75,233.44 
			445.79,233.44 445.79,254.14 450.52,254.14 		"/>
		<path class="st2" d="M196.1,270.49c-0.7-0.68-1.52-1.2-2.46-1.57c-0.94-0.37-1.97-0.56-3.08-0.56c-1.13,0-2.16,0.19-3.11,0.56
			c-0.94,0.37-1.76,0.9-2.46,1.58c-0.7,0.68-1.24,1.48-1.63,2.39c-0.39,0.91-0.58,1.91-0.58,2.99c0,1.08,0.19,2.08,0.58,2.99
			c0.39,0.91,0.93,1.7,1.63,2.39c0.7,0.68,1.52,1.21,2.47,1.58c0.95,0.37,1.98,0.56,3.1,0.56c1.11,0,2.14-0.19,3.08-0.56
			c0.94-0.37,1.76-0.9,2.46-1.57s1.24-1.47,1.63-2.39c0.39-0.92,0.58-1.91,0.58-3c0-1.08-0.19-2.08-0.58-3
			C197.34,271.96,196.8,271.16,196.1,270.49 M196.28,278.32c-0.31,0.74-0.74,1.39-1.3,1.94c-0.56,0.56-1.21,0.99-1.96,1.29
			c-0.75,0.3-1.57,0.45-2.46,0.45c-0.89,0-1.71-0.15-2.47-0.45c-0.76-0.3-1.42-0.73-1.98-1.29c-0.56-0.56-0.99-1.21-1.31-1.95
			c-0.32-0.75-0.48-1.56-0.48-2.43c0-0.89,0.16-1.7,0.48-2.44c0.32-0.74,0.75-1.39,1.31-1.94c0.56-0.56,1.21-0.99,1.98-1.29
			c0.76-0.3,1.58-0.45,2.47-0.45c0.89,0,1.71,0.15,2.46,0.45c0.75,0.3,1.41,0.73,1.96,1.29c0.56,0.56,0.99,1.2,1.3,1.94
			c0.31,0.74,0.46,1.55,0.46,2.44C196.75,276.76,196.59,277.58,196.28,278.32"/>
		<polygon class="st2" points="212.63,280.48 203.11,268.48 201.82,268.48 201.82,283.27 203.38,283.27 203.38,271.28 
			212.89,283.27 214.18,283.27 214.18,268.48 212.63,268.48 		"/>
		<polygon class="st2" points="220.56,268.48 218.99,268.48 218.99,283.27 228.84,283.27 228.84,281.92 220.56,281.92 		"/>
		<rect x="231.44" y="268.48" class="st2" width="1.56" height="14.79"/>
		<polygon class="st2" points="248.63,280.48 239.1,268.48 237.82,268.48 237.82,283.27 239.38,283.27 239.38,271.28 248.89,283.27 
			250.17,283.27 250.17,268.48 248.63,268.48 		"/>
		<polygon class="st2" points="256.55,276.43 264.2,276.43 264.2,275.09 256.55,275.09 256.55,269.83 265.13,269.83 265.13,268.48 
			254.99,268.48 254.99,283.27 265.45,283.27 265.45,281.92 256.55,281.92 		"/>
		<path class="st2" d="M285.98,284.96c-0.39,0-0.79-0.08-1.19-0.24c-0.4-0.16-0.81-0.41-1.23-0.75c-0.25-0.21-0.51-0.45-0.77-0.73
			c0.49-0.09,0.96-0.23,1.42-0.41c0.94-0.37,1.76-0.9,2.46-1.57c0.7-0.68,1.24-1.47,1.63-2.39c0.39-0.92,0.58-1.92,0.58-3
			s-0.19-2.08-0.58-3c-0.39-0.92-0.93-1.71-1.63-2.39c-0.7-0.68-1.52-1.2-2.46-1.57c-0.94-0.37-1.97-0.56-3.08-0.56
			c-1.13,0-2.16,0.19-3.11,0.56c-0.94,0.37-1.76,0.9-2.46,1.58c-0.7,0.68-1.24,1.48-1.63,2.39c-0.39,0.91-0.58,1.91-0.58,2.99
			s0.19,2.08,0.58,2.99c0.39,0.91,0.93,1.7,1.63,2.39c0.7,0.68,1.52,1.21,2.47,1.58c0.87,0.34,1.81,0.52,2.82,0.55
			c0.43,0.44,0.83,0.83,1.2,1.15c0.45,0.39,0.89,0.71,1.32,0.96c0.43,0.25,0.86,0.43,1.28,0.54c0.42,0.11,0.86,0.17,1.31,0.17
			c1.46,0,2.66-0.56,3.59-1.69l-0.76-0.91C288.02,284.51,287.08,284.96,285.98,284.96 M276.68,280.25
			c-0.56-0.56-0.99-1.21-1.31-1.95c-0.32-0.74-0.48-1.55-0.48-2.42c0-0.89,0.16-1.7,0.48-2.44c0.32-0.74,0.75-1.39,1.31-1.94
			c0.56-0.56,1.21-0.99,1.98-1.29c0.76-0.3,1.58-0.45,2.47-0.45c0.89,0,1.71,0.15,2.46,0.45c0.75,0.3,1.41,0.73,1.96,1.29
			c0.56,0.56,0.99,1.2,1.3,1.94c0.31,0.74,0.46,1.55,0.46,2.44c0,0.87-0.16,1.68-0.46,2.42c-0.31,0.74-0.74,1.39-1.3,1.95
			c-0.56,0.56-1.21,1-1.96,1.3c-0.75,0.3-1.57,0.45-2.46,0.45c-0.89,0-1.71-0.15-2.47-0.45
			C277.89,281.25,277.23,280.81,276.68,280.25"/>
		<path class="st2" d="M302.88,276.89c0,1.75-0.39,3.04-1.18,3.87c-0.79,0.83-1.91,1.25-3.36,1.25c-1.44,0-2.55-0.42-3.34-1.25
			c-0.79-0.83-1.18-2.12-1.18-3.87v-8.41h-1.56v8.47c0,2.13,0.54,3.73,1.63,4.82c1.08,1.08,2.57,1.63,4.46,1.63
			c1.89,0,3.37-0.54,4.45-1.63c1.08-1.08,1.62-2.69,1.62-4.82v-8.47h-1.52V276.89z"/>
		<path class="st2" d="M317.88,277.98c0.9-0.4,1.59-0.98,2.08-1.73c0.49-0.75,0.73-1.65,0.73-2.69c0-1.07-0.24-1.98-0.73-2.74
			c-0.49-0.75-1.18-1.33-2.08-1.73c-0.9-0.4-1.98-0.6-3.23-0.6h-5.53v14.79h1.56v-4.69h3.97c0.42,0,0.81-0.03,1.19-0.08l3.38,4.76
			h1.71l-3.62-5.08C317.5,278.13,317.7,278.06,317.88,277.98 M314.61,277.25h-3.93v-7.41h3.93c1.48,0,2.6,0.32,3.37,0.97
			c0.77,0.65,1.15,1.56,1.15,2.75c0,1.17-0.38,2.08-1.15,2.73C317.21,276.93,316.08,277.25,314.61,277.25"/>
		<path class="st2" d="M328.78,268.48l-6.76,14.79h1.63l1.77-3.95h8.25l1.77,3.95h1.65l-6.76-14.79H328.78z M325.98,278.05
			l3.56-7.95l3.56,7.95H325.98z"/>
		<polygon class="st2" points="350.35,280.47 340.82,268.48 339.53,268.48 339.53,283.27 341.1,283.27 341.1,271.28 350.6,283.27 
			351.89,283.27 351.89,268.48 350.35,268.48 		"/>
		<path class="st2" d="M366.64,268.48l-6.76,14.79h1.63l1.77-3.95h8.25l1.77,3.95h1.65l-6.76-14.79H366.64z M363.84,278.05
			l3.56-7.95l3.56,7.95H363.84z"/>
		<path class="st2" d="M379.21,271.49c0.56-0.56,1.23-0.99,1.99-1.29c0.76-0.3,1.58-0.45,2.47-0.45c0.84,0,1.63,0.14,2.37,0.41
			c0.73,0.27,1.4,0.72,2.01,1.34l0.99-0.99c-0.65-0.72-1.44-1.26-2.39-1.62c-0.94-0.36-1.95-0.54-3.02-0.54
			c-1.11,0-2.14,0.19-3.08,0.56c-0.94,0.37-1.76,0.9-2.46,1.57c-0.7,0.68-1.24,1.47-1.63,2.39c-0.39,0.92-0.58,1.92-0.58,3
			c0,1.08,0.19,2.08,0.58,3c0.39,0.92,0.93,1.71,1.62,2.39c0.69,0.68,1.51,1.2,2.45,1.57c0.94,0.37,1.97,0.56,3.08,0.56
			c1.08,0,2.1-0.18,3.04-0.55c0.94-0.37,1.74-0.91,2.39-1.63l-0.99-0.99c-0.61,0.62-1.28,1.07-2.01,1.35
			c-0.73,0.28-1.52,0.42-2.37,0.42c-0.89,0-1.71-0.15-2.47-0.45c-0.76-0.3-1.42-0.73-1.99-1.29c-0.56-0.56-1-1.2-1.32-1.94
			c-0.32-0.74-0.48-1.55-0.48-2.44c0-0.89,0.16-1.7,0.48-2.44C378.2,272.7,378.64,272.05,379.21,271.49"/>
		<path class="st2" d="M396.38,268.48l-6.76,14.79h1.63l1.77-3.95h8.25l1.77,3.95h1.65l-6.76-14.79H396.38z M393.58,278.05
			l3.56-7.95l3.56,7.95H393.58z"/>
		<path class="st2" d="M417.31,269.42c-1.19-0.63-2.57-0.94-4.15-0.94h-6.02v14.79h6.02c1.58,0,2.96-0.31,4.15-0.94
			c1.19-0.63,2.12-1.5,2.78-2.61c0.66-1.11,0.99-2.39,0.99-3.84c0-1.45-0.33-2.73-0.99-3.84
			C419.42,270.92,418.5,270.05,417.31,269.42 M418.73,279.01c-0.54,0.91-1.29,1.62-2.25,2.13c-0.97,0.51-2.1,0.77-3.41,0.77h-4.37
			v-12.08h4.37c1.31,0,2.45,0.26,3.41,0.77c0.96,0.51,1.71,1.22,2.25,2.12c0.53,0.9,0.8,1.95,0.8,3.15
			C419.54,277.06,419.27,278.1,418.73,279.01"/>
		<polygon class="st2" points="426.15,276.43 433.79,276.43 433.79,275.09 426.15,275.09 426.15,269.83 434.72,269.83 
			434.72,268.48 424.58,268.48 424.58,283.27 435.04,283.27 435.04,281.92 426.15,281.92 		"/>
		<polygon class="st2" points="446.43,279.44 440.01,268.48 438.72,268.48 438.72,283.27 440.22,283.27 440.22,271.51 
			446.03,281.39 446.77,281.39 452.57,271.44 452.57,283.27 454.07,283.27 454.07,268.48 452.79,268.48 		"/>
		<polygon class="st2" points="468.31,268.48 463.24,276.78 458.17,268.48 456.5,268.48 462.42,278.16 462.42,283.27 463.96,283.27 
			463.96,278.16 469.88,268.48 		"/>
	</g>
</g>
</svg>
