<?xml version="1.0" encoding="utf-8"?>
<!-- Generator: Adobe Illustrator 23.0.5, SVG Export Plug-In . SVG Version: 6.00 Build 0)  -->
<svg version="1.1" id="Layer_1" xmlns="http://www.w3.org/2000/svg" xmlns:xlink="http://www.w3.org/1999/xlink" x="0px" y="0px"
	 viewBox="0 0 512 512" style="enable-background:new 0 0 512 512;" xml:space="preserve">
<style type="text/css">
	.st0{fill:#FDFEFE;}
	.st1{fill:#F9F9FA;}
	.st2{fill:#5678BB;}
	.st3{clip-path:url(#SVGID_2_);fill:#FFFFFF;}
</style>
<g>
	<rect class="st2" width="512" height="512"/>
	<g>
		<defs>
			<rect id="SVGID_1_" x="4.16" y="5.05" width="503.68" height="503.68"/>
		</defs>
		<clipPath id="SVGID_2_">
			<use xlink:href="#SVGID_1_"  style="overflow:visible;"/>
		</clipPath>
		<path class="st3" d="M98.75,220.33c0.16,0.23,0.26,0.32,0.31,0.44c1.27,2.66,3.07,4.94,5.11,7.04c2.12,2.19,4.3,4.32,6.43,6.5
			c1.83,1.88,3.37,3.98,4.46,6.38c2.04,4.5,2.21,9.1,0.49,13.71c-2.09,5.59-5.18,10.54-9.74,14.48c-2.11,1.82-4.42,3.35-6.85,4.7
			c-0.23,0.13-0.51,0.23-0.77,0.27c-2.56,0.35-5.09,0.15-7.77-0.38c0.23-0.11,0.31-0.17,0.4-0.18c3.39-0.35,6.52-1.52,9.5-3.1
			c3.88-2.07,7.41-4.62,10.39-7.87c0.95-1.03,1.76-2.16,2.5-3.36c1.94-3.16,2.16-6.57,1.63-10.09c-0.51-3.4-2.18-6.3-4.27-8.98
			c-1.71-2.2-3.75-4.09-5.72-6.03c-2.27-2.24-4.5-4.52-6.23-7.22c-0.08-0.12-0.2-0.22-0.4-0.43c-0.02,0.32-0.06,0.5-0.05,0.68
			c0.29,4.64,1.73,8.86,4.57,12.58c1.65,2.16,3.26,4.35,4.81,6.58c1.97,2.81,2.22,5.8,0.59,8.86c-0.62,1.16-1.29,2.3-2.03,3.39
			c-1.37,1.98-3.28,3.12-5.69,3.38c-0.11,0.01-0.22,0.02-0.33,0.04c-1.19,0.2-2.3,0.04-3.27-0.79c-0.2,0.08-0.41,0.16-0.6,0.25
			c-1.79,0.79-3.65,1-5.56,0.57c-1.09-0.25-2.16-0.64-3.23-0.99c-1.1-0.36-2.19-0.71-3.36-0.77c-1.74-0.08-3.31,0.37-4.73,1.39
			c-0.39,0.28-0.6,0.59-0.64,1.08c-0.13,1.48,0.2,2.86,0.91,4.12c0.66,1.2,1.43,2.34,2.21,3.47c1.27,1.83,2.6,3.63,3.48,5.68
			c2.48,5.76,2.68,11.6,0.39,17.47c-0.26,0.67-0.63,1.3-1.07,1.89c0.19-0.85,0.41-1.7,0.57-2.56c0.64-3.48,0.7-6.95-0.61-10.31
			c-1.11-2.87-2.4-5.66-4.32-8.11c-0.76-0.97-1.48-1.98-2.16-3.01c-0.4-0.62-0.72-1.3-1.01-1.98c-0.69-1.66-0.72-3.36,0.09-4.95
			c0.8-1.59,1.68-3.16,2.7-4.61c1.73-2.47,4.21-3.34,7.15-2.81c1.24,0.22,2.45,0.61,3.67,0.93c0.69,0.18,1.38,0.36,2.08,0.53
			c0.25,0.06,0.52,0.06,0.91,0.11c-0.14-0.41-0.24-0.69-0.33-0.97c-0.49-1.47-0.44-2.92,0.21-4.33c0.69-1.5,1.49-2.94,2.6-4.19
			c0.9-1.02,2-1.62,3.39-1.6c1.64,0.02,2.89,1,3.3,2.58c0.3,1.16,0.2,2.31-0.29,3.38c-0.52,1.12-1.15,2.18-1.74,3.26
			c-0.25,0.45-0.54,0.88-0.9,1.45c0.75,0.13,1.38,0.3,2.01,0.34c1.85,0.11,3.45-0.55,4.8-1.79c0.26-0.24,0.37-0.73,0.42-1.12
			c0.22-1.9-0.25-3.67-1.27-5.26c-1.14-1.78-2.38-3.49-3.57-5.24c-1.08-1.59-2.22-3.14-3.2-4.78c-1.2-2.02-1.87-4.27-2.3-6.58
			c-0.55-3.04-0.49-6.06,0.12-9.09c0.19-0.97,0.74-1.77,1.12-2.65C98.23,221.27,98.48,220.85,98.75,220.33 M100.96,254.48
			c-0.02-0.25-0.03-0.49-0.06-0.74c-0.28-2.38-2.21-3.65-4.5-2.98c-0.24,0.07-0.46,0.18-0.69,0.26c-0.52,0.18-0.69,0.54-0.66,1.08
			c0.14,2.38,1.38,4.05,3.39,5.2c0.18,0.1,0.5,0.1,0.68,0C100.26,256.72,101.11,255.92,100.96,254.48"/>
		<path class="st3" d="M66.92,218.71c0.21,0.46,0.39,0.91,0.62,1.34c1.48,2.83,1.5,5.87,1.25,8.93c-0.42,5.2-2.57,9.65-5.96,13.57
			c-0.82,0.95-1.57,1.98-2.3,3.01c-0.51,0.72-0.8,1.56-0.97,2.43c-0.11,0.54,0.02,0.97,0.4,1.35c0.92,0.95,2.03,1.38,3.34,1.28
			c0.27-0.02,0.53-0.07,0.82-0.11c0.02,0.11,0.07,0.2,0.05,0.26c-0.32,0.9-0.66,1.81-0.98,2.71c-0.13,0.37-0.38,0.56-0.76,0.68
			c-1.59,0.49-3.55-0.26-4.38-1.68c-0.19-0.33-0.24-0.64-0.08-1.01c0.34-0.78,0.64-1.58,0.98-2.36c0.16-0.36,0.17-0.67,0-1.02
			c-0.17-0.34-0.29-0.71-0.43-1.07c-0.8-1.97-0.54-3.83,0.68-5.54c0.75-1.05,1.53-2.08,2.37-3.06c2.1-2.42,3.7-5.11,4.67-8.17
			c0.49-1.55,0.81-3.14,0.99-4.75c0.03-0.24,0-0.49,0-0.82c-0.15,0.09-0.28,0.12-0.35,0.21c-2.33,3.31-5.38,5.93-8.35,8.62
			c-1.86,1.68-3.65,3.41-5.17,5.42c-2.08,2.75-3.51,5.77-3.84,9.23c-0.07,0.7-0.03,1.43,0.09,2.12c0.54,3.15,1.77,6,3.9,8.41
			c4.78,5.39,12.44,6.39,18.47,2.44c2-1.31,3.59-3.03,5.16-4.81c1.43-1.62,1.62-3.51,1.45-5.47c-0.29-3.24-1.85-5.77-4.61-7.5
			c-0.56-0.35-0.78-0.73-0.8-1.37c-0.03-1.05-0.27-2.07-0.72-3.03c-0.08-0.16-0.12-0.34-0.22-0.61c1.36,0.21,2.52,0.68,3.55,1.42
			c3.43,2.45,4.96,5.83,4.23,9.96c-1.06,6.06-4.01,11.06-9.1,14.65c-2.33,1.65-4.96,2.6-7.83,2.76c-4.38,0.25-8.01-1.39-10.96-4.55
			c-2.63-2.82-3.85-6.28-4.3-10.05c-0.23-1.89-0.16-3.78,0.07-5.67c0.11-0.9,0.06-1.81,0.17-2.71c0.53-4.34,2.48-8.01,5.53-11.07
			c2.21-2.22,4.55-4.3,6.84-6.44c2.21-2.07,4.26-4.28,5.79-6.93c0.16-0.29,0.33-0.57,0.5-0.85
			C66.76,218.8,66.82,218.78,66.92,218.71"/>
		<path class="st3" d="M92.55,281.97c0.76-0.94,1.7-1.49,2.7-1.93c1.95-0.86,4.02-1.3,6.13-1.51c3.57-0.35,7.13-0.17,10.69,0.24
			c7.28,0.83,14.37,2.59,21.39,4.62c2,0.58,4.01,1.14,6.02,1.71c0.33,0.09,0.67,0.14,1.17,0.24c-0.09-0.45-0.14-0.76-0.22-1.07
			c-1.27-4.83-2.55-9.66-3.82-14.5c-2.86-10.86-5.72-21.72-8.58-32.57c-0.29-1.12-0.29-1.12-1.54-1.32
			c0.76-0.73,1.49-1.37,2.35-2.07c0.15,0.41,0.28,0.72,0.37,1.04c0.84,2.87,1.68,5.74,2.5,8.62c2.65,9.29,5.3,18.59,7.92,27.89
			c1.84,6.53,3.65,13.06,5.47,19.59c0.11,0.41,0.19,0.83,0.32,1.41c-0.66-0.21-1.18-0.37-1.69-0.53
			c-5.02-1.62-10.01-3.31-15.06-4.83c-6.39-1.93-12.88-3.48-19.5-4.47c-3.21-0.48-6.43-0.86-9.67-0.9c-2-0.02-4,0.17-6,0.27
			C93.2,281.9,92.88,281.94,92.55,281.97"/>
		<path class="st3" d="M25.8,284.52c0.5-0.11,0.87-0.17,1.22-0.27c3.97-1.1,7.92-2.25,11.91-3.31c6.12-1.63,12.31-2.83,18.64-3.28
			c3.52-0.25,7.03-0.24,10.5,0.54c1.89,0.43,3.68,1.1,5.26,2.27c0.21,0.16,0.4,0.34,0.56,0.65c-0.17,0-0.35,0.02-0.52,0
			c-6.4-0.83-12.72-0.03-19.01,1.08c-8.81,1.55-17.38,4.05-25.86,6.85c-2.19,0.72-4.37,1.48-6.55,2.23
			c-0.25,0.09-0.52,0.15-0.92,0.27c0.09-0.42,0.14-0.73,0.23-1.04c1.34-4.84,2.66-9.69,4.03-14.53
			c3.66-12.92,7.34-25.83,11.01-38.75c0.32-1.14,0.66-2.27,1-3.4c0.08-0.25,0.18-0.5,0.32-0.88c0.81,0.72,1.53,1.35,2.26,2
			c-0.12,0.11-0.15,0.17-0.2,0.17c-0.93,0.1-0.94,0.1-1.18,1c-2.51,9.5-5.01,19.01-7.51,28.52c-1.66,6.32-3.33,12.64-4.99,18.96
			C25.91,283.86,25.88,284.12,25.8,284.52"/>
		<path class="st3" d="M136.7,281.02c-0.56-0.14-0.96-0.22-1.34-0.33c-5.35-1.57-10.76-2.92-16.25-3.93
			c-5.4-0.99-10.84-1.41-16.32-1.22c-1.34,0.05-2.68,0.26-4.01,0.4c-0.32,0.03-0.63,0.07-0.95,0.1c-0.02-0.06-0.04-0.11-0.05-0.17
			c0.38-0.18,0.76-0.38,1.15-0.53c3.1-1.24,6.34-1.74,9.65-1.94c5.81-0.36,11.58,0.1,17.33,0.93c1.79,0.26,3.59,0.51,5.38,0.76
			c1.32,0.18,1.37,0.13,1.05-1.13c-0.86-3.46-1.73-6.92-2.59-10.39c-2.63-10.58-5.26-21.15-7.89-31.73
			c-0.4-1.63-0.81-3.25-1.22-4.87c-0.27-1.06-0.28-1.06-1.33-0.9c-0.75,0.12-1.51,0.24-2.33,0.38c0.39-0.55,3.57-2.62,4.67-3.1
			c0.03,0,0.06,0,0.08,0.01c0.02,0.01,0.05,0.03,0.06,0.06c0.07,0.21,0.16,0.41,0.21,0.62C126.88,242.96,131.76,261.88,136.7,281.02
			"/>
		<path class="st3" d="M68.53,275.22c-1.01-0.12-2.01-0.23-3.02-0.35c-2.6-0.32-5.21-0.19-7.82-0.11
			c-5.37,0.18-10.65,1.09-15.87,2.32c-3.63,0.86-7.23,1.87-10.84,2.82c-0.34,0.09-0.68,0.17-0.95,0.24
			c-0.09-0.08-0.12-0.1-0.13-0.12c-0.01-0.02-0.02-0.05-0.02-0.08c0-0.08-0.01-0.17,0.01-0.24c4.88-18.96,9.76-37.91,14.65-56.87
			c0.03-0.1,0.08-0.2,0.11-0.29c0.6,0.15,4.07,2.28,4.88,3.01c-0.28,0-0.48,0.03-0.67,0c-0.57-0.09-1.14-0.2-1.7-0.3
			c-1.04-0.17-1.07-0.15-1.34,0.9c-0.27,1.04-0.53,2.07-0.79,3.11c-2.58,10.36-5.16,20.73-7.74,31.09
			c-1.07,4.32-2.15,8.63-3.21,12.95c-0.08,0.3-0.09,0.62-0.15,1c0.42,0,0.75,0.04,1.06-0.01c3.16-0.42,6.31-0.91,9.47-1.27
			c5.55-0.63,11.12-0.85,16.68-0.12c2.19,0.29,4.32,0.79,6.37,1.62c0.37,0.15,0.73,0.33,1.1,0.49
			C68.58,275.09,68.55,275.16,68.53,275.22"/>
		<path class="st3" d="M70.46,282.57c-0.35,0.07-0.59,0.14-0.83,0.16c-4.36,0.44-8.61,1.46-12.82,2.62c-4.02,1.11-8.01,2.35-12,3.57
			c-0.87,0.27-1.7,0.36-2.58,0.09c-0.83-0.25-1.68-0.44-2.55-0.79c0.21-0.1,0.41-0.21,0.63-0.29c6.66-2.39,13.46-4.23,20.51-5.07
			C63.57,282.53,68.09,282.36,70.46,282.57"/>
		<path class="st3" d="M95.89,283.41c10.71-0.59,20.87,1.98,31.02,5.6c-0.3,0.14-0.44,0.24-0.6,0.28c-0.69,0.18-1.39,0.33-2.07,0.53
			c-0.88,0.26-1.71,0.19-2.58-0.08c-3.43-1.07-6.86-2.14-10.32-3.12c-4.33-1.23-8.7-2.3-13.17-2.93
			C97.42,283.59,96.65,283.5,95.89,283.41"/>
		<path class="st3" d="M57.9,237.63c-0.16,0.31-0.33,0.62-0.49,0.93c-0.76,1.43-1.57,2.84-2.26,4.29c-0.35,0.73-0.52,1.55-0.73,2.34
			c-0.11,0.43,0.01,0.82,0.41,1.08c0.37,0.24,0.77,0.2,1.22-0.13c0.23-0.17,0.46-0.36,0.75-0.48c-0.15,1.04-0.62,1.86-1.57,2.32
			c-0.79,0.38-1.48,0.02-1.7-0.83c-0.23-0.87-0.24-1.75,0.05-2.6c0.3-0.91,0.63-1.82,1.06-2.67c0.69-1.34,1.44-2.66,2.47-3.78
			c0.13-0.14,0.26-0.28,0.4-0.41c0.08-0.07,0.18-0.12,0.27-0.17C57.81,237.56,57.86,237.6,57.9,237.63"/>
		<path class="st3" d="M69.65,253.44c1.83-0.46,3.37-1.37,4.84-2.63c-0.25-0.24-0.44-0.42-0.62-0.61c-0.43-0.45-0.44-0.85,0.02-1.27
			c0.22-0.2,0.48-0.37,0.76-0.48c0.39-0.16,0.62,0.02,0.66,0.46c0.01,0.14,0.02,0.28-0.01,0.41c-0.13,0.52-0.11,1.01,0.29,1.42
			c-0.09,0.1-0.16,0.21-0.2,0.2c-0.64-0.18-0.99,0.25-1.4,0.6c-1.15,0.96-2.48,1.63-3.83,2.24c-1.02,0.46-2.07,0.84-3.11,1.25
			c-0.03-0.05-0.06-0.1-0.09-0.15c0.15-0.12,0.29-0.26,0.45-0.37c0.65-0.46,1.33-0.88,1.96-1.36c0.53-0.41,0.97-0.92,0.96-1.65
			c-0.01-0.58-0.41-0.84-0.95-0.62c-0.4,0.16-0.5,0.44-0.34,0.86c0.09,0.23,0.18,0.45,0.25,0.68c0.01,0.03-0.04,0.09-0.07,0.14
			c-0.53-0.36-0.74-0.8-0.59-1.36c0.14-0.57,0.48-0.99,1.07-1.15c0.47-0.13,0.9,0.2,0.99,0.74c0.12,0.71-0.03,1.37-0.48,1.94
			C70.02,252.98,69.83,253.21,69.65,253.44 M74.9,250.1c0.03-0.34,0.11-0.57,0.06-0.78c-0.03-0.14-0.25-0.3-0.4-0.31
			c-0.15-0.01-0.39,0.11-0.46,0.24c-0.06,0.12,0.04,0.36,0.14,0.48C74.38,249.88,74.6,249.94,74.9,250.1"/>
		<path class="st3" d="M95.34,240.08c-0.18-0.17-0.29-0.27-0.4-0.38c-0.33-0.32-0.37-0.55-0.14-0.93c0.21-0.35,0.5-0.61,0.92-0.66
			c0.33-0.04,0.48,0.09,0.48,0.42c0,0.12-0.02,0.23-0.05,0.35c-0.1,0.4-0.11,0.77,0.26,1.08c-0.08,0.17-0.16,0.33-0.25,0.51
			c-0.2-0.08-0.37-0.16-0.57-0.24c-1.07,1.07-2.4,1.65-3.9,1.9c0.09-0.07,0.18-0.15,0.28-0.2c0.77-0.39,1.54-0.76,2.3-1.16
			C94.64,240.57,94.96,240.33,95.34,240.08 M95.09,238.78c0.22,0.34,0.34,0.52,0.71,0.45c-0.06-0.19-0.07-0.4-0.18-0.51
			C95.55,238.66,95.34,238.75,95.09,238.78"/>
		<path class="st3" d="M92.48,270.3c-0.06-0.3-0.15-0.61-0.16-0.91c-0.04-0.89-0.23-1.67-1.14-2.12c-0.23-0.11-0.39-0.45-0.48-0.72
			c-0.06-0.2-0.03-0.53,0.1-0.66c0.22-0.23,0.58-0.22,0.83-0.01c0.21,0.17,0.4,0.4,0.5,0.64c0.21,0.47,0.36,0.97,0.52,1.47
			c0.09,0.28,0.12,0.57,0.34,0.89c0.13-0.22,0.27-0.44,0.4-0.66c0.33-0.54,0.63-1.1,0.99-1.61c0.36-0.5,0.88-0.59,1.27-0.29
			c0.37,0.29,0.37,0.7-0.01,1.27c-0.03,0-0.07,0.01-0.08,0c-0.69-0.69-1.06-0.66-1.55,0.19c-0.3,0.52-0.5,1.1-0.77,1.64
			c-0.16,0.33-0.38,0.63-0.57,0.94C92.61,270.33,92.54,270.31,92.48,270.3"/>
		<path class="st3" d="M72.33,235.45c-0.06-0.33-0.16-0.66-0.18-0.99c-0.04-0.87-0.25-1.61-1.13-2.04c-0.23-0.11-0.4-0.45-0.48-0.72
			c-0.06-0.2-0.01-0.53,0.12-0.66c0.22-0.23,0.57-0.2,0.83,0.01c0.19,0.15,0.37,0.35,0.46,0.57c0.22,0.53,0.39,1.08,0.56,1.62
			c0.08,0.25,0.12,0.51,0.35,0.8c0.17-0.3,0.33-0.61,0.51-0.91c0.28-0.47,0.54-0.96,0.86-1.4c0.37-0.5,0.9-0.58,1.28-0.26
			c0.38,0.32,0.37,0.7-0.03,1.28c-0.02,0-0.06,0.01-0.07-0.01c-0.71-0.72-1.08-0.68-1.58,0.24c-0.28,0.53-0.49,1.1-0.76,1.64
			c-0.15,0.3-0.36,0.58-0.55,0.86L72.33,235.45z"/>
		<path class="st3" d="M103.64,225.91c0.18-0.55,0.58-0.6,0.92-0.71c2.04-0.65,4.08-1.29,6.12-1.93c0.55-0.17,1.1-0.33,1.66-0.48
			c0.26-0.07,0.52-0.12,0.8-0.18c0.21,0.44-0.01,0.6-0.33,0.7c-0.47,0.14-0.95,0.27-1.42,0.41c-2.35,0.67-4.69,1.34-7.04,2.02
			C104.14,225.79,103.94,225.84,103.64,225.91"/>
		<path class="st3" d="M108.8,261.29c-0.2,0.73-0.49,1.2-1.05,1.45c-0.51,0.23-0.98,0.05-1.07-0.5c-0.08-0.5-0.11-1.05,0-1.54
			c0.41-1.69,1.3-3.12,2.45-4.41c0.03-0.03,0.09-0.02,0.26-0.05c-0.29,0.53-0.55,1-0.79,1.48c-0.4,0.81-0.8,1.62-1.17,2.44
			c-0.12,0.27-0.18,0.58-0.2,0.88c-0.04,0.62,0.42,0.89,0.97,0.61C108.36,261.57,108.51,261.47,108.8,261.29"/>
		<path class="st3" d="M82.25,254.23c-0.08-0.86-0.14-1.72-0.24-2.58c-0.37-3.02-0.73-6.04-1.16-9.06
			c-0.62-4.37-0.83-8.81-2.4-13.01c-0.22-0.59,0.08-1.38,0.15-2.07c0.1-0.02,0.21-0.05,0.31-0.07c0.22,0.42,0.53,0.82,0.65,1.27
			c0.52,2.01,1.16,4.02,1.44,6.07c0.7,5.09,1.22,10.21,1.83,15.31c0.32,2.7,1.75,3.77,4.31,2.93c1.8-0.59,3.5-1.52,5.16-2.46
			c0.94-0.53,0.83-1.3-0.19-1.72c-0.61-0.25-1.32-0.35-1.99-0.39c-0.64-0.04-1.3,0.11-1.95,0.12c-1.38,0.02-2.19-0.73-2.29-2.09
			c-0.11-1.46,0.45-2.69,1.42-3.73c0.69-0.74,1.65-0.79,2.75-0.19c1.73,0.96,2.66,2.55,3.18,4.37c1.67,5.83-4.18,9.11-7.9,8.77
			c-0.76-0.07-1.46-0.77-2.2-1.16c-0.28-0.15-0.6-0.23-0.91-0.35C82.22,254.2,82.25,254.23,82.25,254.23 M90.51,246
			c-0.73-0.99-1.43-1.5-2.41-1.35c-0.29,0.04-0.54,0.4-0.81,0.61c0.25,0.24,0.48,0.63,0.76,0.68
			C88.79,246.04,89.54,245.99,90.51,246"/>
		<path class="st3" d="M85.61,238.57c0.76,0.4,1.45,0.75,2.21,1.15c0.26-0.56,0.48-1.02,0.75-1.6c0.75,0.42,1.44,0.81,2.22,1.25
			c-0.27,0.69-0.52,1.31-0.79,2c-0.79-0.42-1.5-0.79-2.26-1.19c-0.29,0.55-0.54,1.03-0.79,1.5
			C84.43,240.31,84.5,240.93,85.61,238.57"/>
		<path class="st3" d="M84.01,237.55c0.19-0.24,0.29-0.49,0.48-0.58c2-0.95,4-1.87,6.1-2.68c-0.12,0.13-0.21,0.3-0.36,0.37
			c-1.98,0.98-3.98,1.94-5.97,2.91C84.23,237.59,84.19,237.57,84.01,237.55"/>
		<path class="st3" d="M96.93,246.4c-0.92-0.64-1.83-1.29-2.83-2c0.45-0.9,0.86-1.73,1.28-2.56
			C98.84,243.72,99.01,243.65,96.93,246.4"/>
		<rect x="160.03" y="234.33" class="st3" width="2.19" height="20.7"/>
		<path class="st3" d="M183.2,253.72c1.67-0.88,2.96-2.09,3.89-3.65c0.93-1.56,1.39-3.35,1.39-5.38c0-2.03-0.46-3.82-1.39-5.38
			c-0.93-1.56-2.22-2.77-3.89-3.65c-1.67-0.88-3.6-1.32-5.81-1.32h-8.43v20.7h8.43C179.6,255.03,181.53,254.59,183.2,253.72
			 M171.15,253.14v-16.91h6.12c1.83,0,3.42,0.36,4.77,1.08c1.35,0.72,2.4,1.71,3.15,2.97c0.75,1.26,1.12,2.73,1.12,4.41
			c0,1.66-0.37,3.12-1.12,4.39c-0.75,1.27-1.8,2.27-3.15,2.99c-1.35,0.72-2.94,1.08-4.77,1.08H171.15z"/>
		<path class="st3" d="M199.24,234.33l-9.46,20.7h2.28l2.47-5.53h11.55l2.47,5.53h2.31l-9.46-20.7H199.24z M195.32,247.73
			l4.98-11.13l4.98,11.13H195.32z"/>
		<path class="st3" d="M222.04,248.47c0.58,0,1.13-0.04,1.66-0.11l4.73,6.67h2.4l-5.06-7.11c0.28-0.09,0.55-0.19,0.81-0.3
			c1.26-0.56,2.23-1.37,2.91-2.42c0.68-1.05,1.02-2.31,1.02-3.77c0-1.5-0.34-2.77-1.02-3.83s-1.65-1.86-2.91-2.42
			c-1.26-0.56-2.77-0.84-4.52-0.84h-7.75v20.7h2.19v-6.56H222.04z M226.69,237.59c1.07,0.91,1.61,2.19,1.61,3.84
			c0,1.64-0.54,2.91-1.61,3.81c-1.07,0.91-2.65,1.36-4.72,1.36h-5.5v-10.38h5.5C224.05,236.23,225.62,236.68,226.69,237.59"/>
		<path class="st3" d="M241.82,234.33l-9.46,20.7h2.28l2.47-5.53h11.55l2.47,5.53h2.31l-9.46-20.7H241.82z M237.9,247.73l4.98-11.13
			l4.98,11.13H237.9z"/>
		<path class="st3" d="M268.14,250.6h9.59l1.84,4.44h5.03l-9.25-20.7h-4.73l-9.23,20.7h4.91L268.14,250.6z M272.95,239.04l3.28,7.92
			h-6.58L272.95,239.04z"/>
		<polygon class="st3" points="301.93,251.13 291.55,251.13 291.55,234.33 286.76,234.33 286.76,255.03 301.93,255.03 		"/>
		<rect x="303.11" y="242.7" class="st3" width="8.37" height="3.7"/>
		<polygon class="st3" points="330.1,247.49 330.1,243.65 320.52,243.65 320.52,238.18 331.38,238.18 331.38,234.33 315.73,234.33 
			315.73,255.03 320.52,255.03 320.52,247.49 		"/>
		<path class="st3" d="M350.71,252.93c1.66-1.64,2.48-3.97,2.48-7.01v-11.59h-4.73v11.41c0,1.97-0.4,3.39-1.21,4.26
			c-0.81,0.87-1.94,1.3-3.4,1.3s-2.59-0.43-3.4-1.3c-0.81-0.87-1.21-2.29-1.21-4.26v-11.41h-4.79v11.59c0,3.04,0.83,5.37,2.48,7.01
			c1.66,1.64,3.95,2.45,6.89,2.45C346.76,255.39,349.06,254.57,350.71,252.93"/>
		<path class="st3" d="M362.72,249.27h4.17c0.08,0,0.15,0,0.22,0l3.98,5.77h5.17l-4.62-6.64c0.01-0.01,0.03-0.01,0.04-0.02
			c1.34-0.59,2.38-1.44,3.1-2.56c0.73-1.11,1.09-2.44,1.09-3.98c0-1.56-0.36-2.9-1.09-4.02c-0.73-1.12-1.76-1.99-3.1-2.59
			c-1.34-0.6-2.94-0.9-4.79-0.9h-8.96v20.7h4.79V249.27z M369.93,239.18c0.73,0.63,1.09,1.52,1.09,2.66c0,1.12-0.37,2.01-1.09,2.65
			c-0.73,0.64-1.83,0.96-3.31,0.96h-3.9v-7.21h3.9C368.1,238.24,369.2,238.55,369.93,239.18"/>
		<path class="st3" d="M381.57,252.34c1.01,0.97,2.22,1.72,3.61,2.25c0.9,0.34,1.84,0.56,2.83,0.69c0.65,0.69,1.26,1.29,1.84,1.8
			c0.76,0.67,1.49,1.2,2.19,1.6c0.7,0.39,1.41,0.68,2.13,0.86c0.72,0.18,1.48,0.27,2.29,0.27c2.33,0,4.19-0.85,5.59-2.54l-2.13-2.54
			c-0.99,1.02-2.11,1.54-3.37,1.54c-0.47,0-0.92-0.09-1.35-0.27c-0.42-0.18-0.86-0.48-1.32-0.92c-0.09-0.09-0.18-0.18-0.27-0.28
			c0.2-0.06,0.39-0.12,0.59-0.19c1.37-0.53,2.56-1.28,3.58-2.23c1.01-0.96,1.81-2.09,2.38-3.4s0.86-2.74,0.86-4.27
			c0-1.56-0.29-2.99-0.86-4.29c-0.57-1.3-1.37-2.43-2.38-3.39c-1.02-0.96-2.21-1.7-3.58-2.23c-1.37-0.53-2.87-0.8-4.51-0.8
			c-1.62,0-3.11,0.27-4.49,0.8c-1.38,0.53-2.58,1.28-3.61,2.25c-1.03,0.97-1.82,2.1-2.38,3.4c-0.56,1.3-0.84,2.72-0.84,4.26
			c0,1.54,0.28,2.96,0.84,4.26C379.76,250.24,380.55,251.38,381.57,252.34 M383.69,241.99c0.33-0.81,0.78-1.51,1.36-2.1
			c0.58-0.59,1.27-1.04,2.05-1.36c0.79-0.32,1.65-0.47,2.57-0.47c0.93,0,1.78,0.16,2.56,0.47c0.78,0.32,1.46,0.77,2.06,1.36
			c0.59,0.59,1.05,1.29,1.37,2.1c0.33,0.81,0.49,1.71,0.49,2.69c0,0.97-0.16,1.86-0.49,2.68c-0.33,0.82-0.78,1.52-1.37,2.11
			c-0.59,0.59-1.28,1.05-2.06,1.36c-0.78,0.32-1.63,0.47-2.56,0.47c-0.93,0-1.78-0.16-2.57-0.47c-0.79-0.31-1.47-0.77-2.05-1.36
			c-0.58-0.59-1.03-1.3-1.36-2.11c-0.33-0.82-0.49-1.71-0.49-2.68C383.21,243.7,383.37,242.8,383.69,241.99"/>
		<path class="st3" d="M424.81,255.03l-9.25-20.7h-4.73l-9.22,20.7h4.91l1.84-4.44h9.59l1.84,4.44H424.81z M409.86,246.96l3.29-7.92
			l3.28,7.92H409.86z"/>
		<polygon class="st3" points="431.7,242.47 442.02,255.03 445.95,255.03 445.95,234.33 441.22,234.33 441.22,246.89 430.93,234.33 
			426.97,234.33 426.97,255.03 431.7,255.03 		"/>
		<path class="st3" d="M177.28,271.38c-0.7-0.68-1.52-1.2-2.46-1.57c-0.94-0.37-1.97-0.56-3.08-0.56c-1.13,0-2.16,0.19-3.11,0.56
			c-0.94,0.37-1.76,0.9-2.46,1.58c-0.7,0.68-1.24,1.48-1.63,2.39c-0.39,0.91-0.58,1.91-0.58,2.99c0,1.08,0.19,2.08,0.58,2.99
			c0.39,0.91,0.93,1.7,1.63,2.39c0.7,0.68,1.52,1.21,2.47,1.58c0.95,0.37,1.98,0.56,3.1,0.56c1.11,0,2.14-0.19,3.08-0.56
			c0.94-0.37,1.76-0.9,2.46-1.57s1.24-1.47,1.63-2.39c0.39-0.92,0.58-1.91,0.58-3c0-1.08-0.19-2.08-0.58-3
			C178.52,272.85,177.98,272.06,177.28,271.38 M177.46,279.21c-0.31,0.74-0.74,1.39-1.3,1.94c-0.56,0.56-1.21,0.99-1.96,1.29
			c-0.75,0.3-1.57,0.45-2.46,0.45c-0.89,0-1.71-0.15-2.47-0.45c-0.76-0.3-1.42-0.73-1.98-1.29c-0.56-0.56-0.99-1.21-1.31-1.95
			c-0.32-0.75-0.48-1.56-0.48-2.43c0-0.89,0.16-1.7,0.48-2.44c0.32-0.74,0.75-1.39,1.31-1.94c0.56-0.56,1.21-0.99,1.98-1.29
			c0.76-0.3,1.58-0.45,2.47-0.45c0.89,0,1.71,0.15,2.46,0.45c0.75,0.3,1.41,0.73,1.96,1.29c0.56,0.56,0.99,1.2,1.3,1.94
			c0.31,0.74,0.46,1.55,0.46,2.44C177.92,277.66,177.77,278.47,177.46,279.21"/>
		<polygon class="st3" points="193.81,281.37 184.28,269.37 182.99,269.37 182.99,284.16 184.56,284.16 184.56,272.17 
			194.06,284.16 195.35,284.16 195.35,269.37 193.81,269.37 		"/>
		<polygon class="st3" points="201.73,269.37 200.17,269.37 200.17,284.16 210.01,284.16 210.01,282.81 201.73,282.81 		"/>
		<rect x="212.61" y="269.37" class="st3" width="1.56" height="14.79"/>
		<polygon class="st3" points="229.81,281.37 220.28,269.37 218.99,269.37 218.99,284.16 220.55,284.16 220.55,272.17 
			230.06,284.16 231.35,284.16 231.35,269.37 229.81,269.37 		"/>
		<polygon class="st3" points="237.73,277.32 245.38,277.32 245.38,275.99 237.73,275.99 237.73,270.73 246.3,270.73 246.3,269.37 
			236.16,269.37 236.16,284.16 246.62,284.16 246.62,282.81 237.73,282.81 		"/>
		<path class="st3" d="M267.16,285.85c-0.39,0-0.79-0.08-1.19-0.24c-0.4-0.16-0.81-0.41-1.23-0.75c-0.25-0.21-0.51-0.45-0.77-0.73
			c0.49-0.09,0.96-0.23,1.42-0.41c0.94-0.37,1.76-0.9,2.46-1.57c0.7-0.68,1.24-1.47,1.63-2.39c0.39-0.92,0.58-1.92,0.58-3
			c0-1.08-0.19-2.08-0.58-3c-0.39-0.92-0.93-1.71-1.63-2.39c-0.7-0.68-1.52-1.2-2.46-1.57c-0.94-0.37-1.97-0.56-3.08-0.56
			c-1.13,0-2.16,0.19-3.11,0.56c-0.94,0.37-1.76,0.9-2.46,1.58c-0.7,0.68-1.24,1.48-1.63,2.39c-0.39,0.91-0.58,1.91-0.58,2.99
			c0,1.08,0.19,2.08,0.58,2.99c0.39,0.91,0.93,1.7,1.63,2.39c0.7,0.68,1.52,1.21,2.47,1.58c0.87,0.34,1.81,0.52,2.82,0.55
			c0.43,0.44,0.83,0.83,1.2,1.15c0.45,0.39,0.89,0.71,1.32,0.96c0.43,0.25,0.86,0.43,1.28,0.54c0.42,0.11,0.86,0.17,1.31,0.17
			c1.46,0,2.66-0.56,3.59-1.69l-0.76-0.91C269.19,285.4,268.25,285.85,267.16,285.85 M257.85,281.14c-0.56-0.56-0.99-1.21-1.31-1.95
			c-0.32-0.74-0.48-1.55-0.48-2.42c0-0.89,0.16-1.7,0.48-2.44c0.32-0.74,0.75-1.39,1.31-1.94c0.56-0.56,1.21-0.99,1.98-1.29
			c0.76-0.3,1.58-0.45,2.47-0.45c0.89,0,1.71,0.15,2.46,0.45c0.75,0.3,1.41,0.73,1.96,1.29c0.56,0.56,0.99,1.2,1.3,1.94
			c0.31,0.74,0.46,1.55,0.46,2.44c0,0.87-0.16,1.68-0.46,2.42c-0.31,0.74-0.74,1.39-1.3,1.95c-0.56,0.56-1.21,1-1.96,1.3
			c-0.75,0.3-1.57,0.45-2.46,0.45c-0.89,0-1.71-0.15-2.47-0.45C259.06,282.14,258.41,281.7,257.85,281.14"/>
		<path class="st3" d="M284.06,277.78c0,1.75-0.39,3.04-1.18,3.87c-0.79,0.83-1.91,1.25-3.36,1.25c-1.44,0-2.55-0.42-3.34-1.25
			c-0.79-0.83-1.18-2.12-1.18-3.87v-8.41h-1.56v8.47c0,2.13,0.54,3.73,1.63,4.82c1.08,1.08,2.57,1.63,4.46,1.63
			c1.89,0,3.37-0.54,4.45-1.63c1.08-1.08,1.62-2.69,1.62-4.82v-8.47h-1.52V277.78z"/>
		<path class="st3" d="M299.05,278.87c0.9-0.4,1.59-0.98,2.08-1.73c0.49-0.75,0.73-1.65,0.73-2.69c0-1.07-0.24-1.98-0.73-2.74
			c-0.49-0.75-1.18-1.33-2.08-1.73c-0.9-0.4-1.98-0.6-3.23-0.6h-5.53v14.79h1.56v-4.69h3.97c0.42,0,0.81-0.03,1.19-0.08l3.38,4.76
			h1.71l-3.62-5.08C298.68,279.02,298.87,278.95,299.05,278.87 M295.78,278.14h-3.93v-7.41h3.93c1.48,0,2.6,0.32,3.37,0.97
			c0.77,0.65,1.15,1.56,1.15,2.75c0,1.17-0.38,2.08-1.15,2.73C298.38,277.82,297.26,278.14,295.78,278.14"/>
		<path class="st3" d="M309.96,269.37l-6.76,14.79h1.63l1.77-3.95h8.25l1.77,3.95h1.65l-6.76-14.79H309.96z M307.16,278.94
			l3.56-7.95l3.56,7.95H307.16z"/>
		<polygon class="st3" points="331.52,281.37 322,269.37 320.71,269.37 320.71,284.16 322.27,284.16 322.27,272.17 331.78,284.16 
			333.07,284.16 333.07,269.37 331.52,269.37 		"/>
		<path class="st3" d="M347.81,269.37l-6.76,14.79h1.63l1.77-3.95h8.25l1.77,3.95h1.65l-6.76-14.79H347.81z M345.01,278.94
			l3.56-7.95l3.56,7.95H345.01z"/>
		<path class="st3" d="M360.38,272.38c0.56-0.56,1.23-0.99,1.99-1.29c0.76-0.3,1.58-0.45,2.47-0.45c0.84,0,1.63,0.14,2.37,0.41
			c0.73,0.27,1.4,0.72,2.01,1.34l0.99-0.99c-0.65-0.72-1.44-1.26-2.39-1.62c-0.94-0.36-1.95-0.54-3.02-0.54
			c-1.11,0-2.14,0.19-3.08,0.56c-0.94,0.37-1.76,0.9-2.46,1.57c-0.7,0.68-1.24,1.47-1.63,2.39c-0.39,0.92-0.58,1.92-0.58,3
			c0,1.08,0.19,2.08,0.58,3c0.39,0.92,0.93,1.71,1.62,2.39c0.69,0.68,1.51,1.2,2.45,1.57c0.94,0.37,1.97,0.56,3.08,0.56
			c1.08,0,2.1-0.18,3.04-0.55c0.94-0.37,1.74-0.91,2.39-1.63l-0.99-0.99c-0.61,0.62-1.28,1.07-2.01,1.35
			c-0.73,0.28-1.52,0.42-2.37,0.42c-0.89,0-1.71-0.15-2.47-0.45c-0.76-0.3-1.42-0.73-1.99-1.29c-0.56-0.56-1-1.2-1.32-1.94
			c-0.32-0.74-0.48-1.55-0.48-2.44c0-0.89,0.16-1.7,0.48-2.44C359.38,273.59,359.82,272.94,360.38,272.38"/>
		<path class="st3" d="M377.56,269.37l-6.76,14.79h1.63l1.77-3.95h8.25l1.77,3.95h1.65l-6.76-14.79H377.56z M374.76,278.94
			l3.56-7.95l3.56,7.95H374.76z"/>
		<path class="st3" d="M398.48,270.31c-1.19-0.63-2.57-0.94-4.15-0.94h-6.02v14.79h6.02c1.58,0,2.96-0.31,4.15-0.94
			c1.19-0.63,2.12-1.5,2.78-2.61c0.66-1.11,0.99-2.39,0.99-3.84c0-1.45-0.33-2.73-0.99-3.84
			C400.6,271.81,399.67,270.94,398.48,270.31 M399.91,279.91c-0.54,0.91-1.29,1.62-2.25,2.13c-0.97,0.51-2.1,0.77-3.41,0.77h-4.37
			v-12.08h4.37c1.31,0,2.45,0.26,3.41,0.77c0.96,0.51,1.71,1.22,2.25,2.12c0.53,0.9,0.8,1.95,0.8,3.15
			C400.71,277.95,400.44,279,399.91,279.91"/>
		<polygon class="st3" points="407.32,277.32 414.97,277.32 414.97,275.99 407.32,275.99 407.32,270.73 415.9,270.73 415.9,269.37 
			405.76,269.37 405.76,284.16 416.21,284.16 416.21,282.81 407.32,282.81 		"/>
		<polygon class="st3" points="427.6,280.33 421.18,269.37 419.89,269.37 419.89,284.16 421.39,284.16 421.39,272.4 427.2,282.28 
			427.94,282.28 433.75,272.33 433.75,284.16 435.25,284.16 435.25,269.37 433.96,269.37 		"/>
		<polygon class="st3" points="449.49,269.37 444.42,277.67 439.35,269.37 437.68,269.37 443.59,279.05 443.59,284.16 
			445.14,284.16 445.14,279.05 451.05,269.37 		"/>
	</g>
</g>
</svg>
